<svg xmlns="http://www.w3.org/2000/svg" width="482" height="119" fill="none">
  <path fill="#000"
    d="M29.73 60.94c7.29-1.42 12.47-3.52 15.56-6.31 3.37-3 5.19-8.55 5.44-16.63.08-3.67-1.32-6.13-4.2-7.38a22.95 22.95 0 0 0-9.62-1.93c-.83 0-1.85.06-3.06.18l5.56 2.82c-3.46 9-6.68 18.75-9.68 29.25Zm21.5 11.5a66.45 66.45 0 0 1 2.87 5.69c1.08 2.54 1.88 8.16 2.38 16.87l-15.5 9.13c0-6.59-.36-11.92-1.07-16-.7-4.13-1.68-7.21-2.93-9.25-.17-.25-.4-.5-.7-.75-3.4.91-7.33 1.8-11.74 2.68A671.14 671.14 0 0 0 18.4 110L.1 116.63A637.64 637.64 0 0 1 22.29 31l-3.44.81L14.16 15a66.43 66.43 0 0 1 23.38-4.31c6 0 11.02.83 15.06 2.5a21.95 21.95 0 0 1 10.06 8.37c2.63 3.88 3.84 9.32 3.63 16.32-.21 7.66-1.59 14.54-4.13 20.62-2.54 6.04-6.02 10.58-10.43 13.63-.17.12-.34.22-.5.3ZM78.97 73l28.82-8.56-2.57 12.81-44 13.81c3.75-20.2 8.4-40.4 13.94-60.56-.29.04-.58.1-.87.19L70.6 19.5c6.38-1.75 13.7-2.88 22-3.38l24.56-1.8-3.37 12.37-24.88 2.43c-1.29 5.17-2.54 10.3-3.75 15.38l17.75-3-2.37 12.56-18.38 3.69A768.26 768.26 0 0 0 78.97 73ZM123.72 62.31l20.2-5.44-2.07 12-33.56 10c3.54-19.04 8.12-39.85 13.75-62.43l12.18-1.07c-4.2 17.46-7.7 33.1-10.5 46.94ZM166.41 12.56a678.33 678.33 0 0 0-11.19 52.56l-12.12 2.75c3.3-19.08 7.2-37.5 11.75-55.25l11.56-.06ZM200.16 54.19a24.42 24.42 0 0 1-4.56 5.19c-4.92 4.29-10.27 5.74-16.06 4.37-5.8-1.38-9.88-5.38-12.25-12-2.38-6.63-2.52-13.98-.44-22.06 2.13-8.09 5.94-13.52 11.44-16.32 5.54-2.83 10.62-3.43 15.25-1.8 4.66 1.62 9.23 5.78 13.69 12.5l-9.75 8.43c-1.75-6.58-3.98-10.48-6.7-11.69-2.7-1.25-5.53-.58-8.5 2-2.95 2.59-5 5.96-6.12 10.13a28 28 0 0 0-.31 12.75c.88 4.29 2.67 6.96 5.38 8 2.7 1.04 5.14.6 7.3-1.31a18.09 18.09 0 0 0 4.76-6.63l6.87 8.44ZM287.1 22.44c-6.33.7-13.69 2.25-22.06 4.62-8.34 2.34-12.5 6.3-12.5 11.88 0 5 3.79 10 11.37 15 7.59 5 11.38 12.7 11.38 23.12 0 12.3-4.56 21.31-13.69 27.06-9.08 5.8-19.6 9.8-31.56 12l-8.19-16.43c5.08-1.25 12.52-3.8 22.31-7.63 9.8-3.87 14.69-8.7 14.69-14.5 0-5.12-3.96-10.06-11.88-14.81-7.87-4.75-11.8-12.08-11.8-22 0-10.88 3.56-18.77 10.68-23.69 7.13-4.91 17.98-8.93 32.56-12.06l8.69 17.44ZM296.98 73l28.8-8.56-2.55 12.81-44 13.81c3.75-20.2 8.4-40.4 13.93-60.56-.29.04-.58.1-.87.19L288.6 19.5c6.38-1.75 13.7-2.88 22-3.38l24.56-1.8-3.37 12.37-24.88 2.43c-1.29 5.17-2.54 10.3-3.75 15.38l17.75-3-2.37 12.56-18.38 3.69A768.22 768.22 0 0 0 296.97 73Z" />
  <path fill="#000"
    d="m353.41 13.56 21.13-1.06-2.88 10.81-21.44 1.63c-1.12 4.5-2.2 8.98-3.25 13.43l15.25-2.24-2.06 11L344.35 50c-1 4.5-1.94 8.94-2.81 13.31l24.87-6.87-2.25 11.19-37.87 11.25c3.29-17.71 7.33-35.38 12.12-53l-.75.12-3.12-9.94a93.4 93.4 0 0 1 18.87-2.5ZM393.1 44.19l10.75 16.87-9 5.31-11.88-19.3c-1.62 7.66-3.06 14.78-4.3 21.37l-12.13 2.75c3.29-17.5 7.56-36.63 12.81-57.38l11.31-.25c-1.96 8.17-3.77 15.88-5.44 23.13l18.75-24.94 8.88 6.81L393.1 44.2Z" />
  <path fill="#000"
    d="m446.6 11.81-2.56 9.38-18.38.06c-1 3.96-1.96 7.88-2.87 11.75l13.19-1.06-1.82 9.62-13.62 1.56a446.9 446.9 0 0 0-2.44 11.63l21.38-4.56-1.94 9.81-32.63 7.5a581.5 581.5 0 0 1 10.56-46.19c-.25 0-.47.02-.68.07l-2.69-9c3.83-.71 8.13-1.07 12.88-1.07 1.12 0 8.33.17 21.62.5Z" />
  <path fill="#000"
    d="M455.98 36.75c4.29-.3 7.35-1.1 9.18-2.44 1.88-1.33 2.84-3.54 2.88-6.62v-.07c0-3-.86-4.91-2.56-5.75a12.99 12.99 0 0 0-4.44-1.43 25.1 25.1 0 0 0-3-.25l3.31 1.81a137.3 137.3 0 0 0-5.38 14.75Zm12.8 7.31a27.44 27.44 0 0 1 1.76 3.13c.66 1.37 1.23 4.35 1.69 8.94L463.16 60c-.04-3.42-.31-6.2-.81-8.38-.46-2.2-1.2-4.04-2.25-5.5a103 103 0 0 1-6.81.76c-1.21 4.66-2.3 9.62-3.25 14.87l-10.63 2.38a283.24 283.24 0 0 1 11.88-43.5l-2 .25-3-9.13a41.68 41.68 0 0 1 9.37-1.13c1.17 0 3.04.15 5.63.44 2.62.25 5.14.94 7.56 2.06a16.34 16.34 0 0 1 6.13 4.94c1.58 2.04 2.37 5.04 2.37 9a26.2 26.2 0 0 1-2.31 10.32c-1.42 3-3.5 5.22-6.25 6.68Z" />
  <path fill="url(#gradient)"
    d="M34.13 55.94c7.29-1.42 12.47-3.52 15.56-6.31 3.37-3 5.19-8.55 5.44-16.63.08-3.67-1.32-6.13-4.2-7.38a22.95 22.95 0 0 0-9.62-1.93c-.83 0-1.85.06-3.06.18l5.56 2.82c-3.46 9-6.69 18.75-9.69 29.25Zm21.5 11.5a66.42 66.42 0 0 1 2.87 5.69c1.08 2.54 1.88 8.16 2.38 16.87l-15.5 9.13c0-6.59-.36-11.92-1.07-16-.7-4.13-1.69-7.21-2.94-9.25-.16-.25-.4-.5-.68-.75a183.1 183.1 0 0 1-11.75 2.68A671.3 671.3 0 0 0 22.8 105L4.5 111.63A637.64 637.64 0 0 1 26.69 26l-3.44.81L18.56 10a66.43 66.43 0 0 1 23.38-4.31c6 0 11.02.83 15.06 2.5a21.95 21.95 0 0 1 10.06 8.37c2.63 3.88 3.84 9.32 3.63 16.32-.21 7.66-1.59 14.54-4.13 20.62-2.54 6.04-6.02 10.58-10.44 13.63-.16.12-.33.22-.5.3Z" />
  <path fill="url(#gradient)"
    d="m83.38 68 28.8-8.56-2.56 12.81-44 13.81c3.75-20.2 8.4-40.4 13.94-60.56-.29.04-.58.1-.87.19L75 14.5c6.38-1.75 13.7-2.88 22-3.38l24.56-1.8-3.37 12.37-24.88 2.43c-1.29 5.17-2.54 10.3-3.75 15.38l17.75-3-2.37 12.56-18.38 3.69A768.26 768.26 0 0 0 83.37 68Z" />
  <path fill="url(#gradient)"
    d="m128.13 57.31 20.18-5.44-2.06 12-33.56 10c3.54-19.04 8.12-39.85 13.75-62.43l12.19-1.06c-4.21 17.45-7.71 33.1-10.5 46.93Z" />
  <path fill="url(#gradient)"
    d="M170.81 7.56a678.33 678.33 0 0 0-11.19 52.56l-12.12 2.76c3.3-19.09 7.2-37.5 11.75-55.26l11.56-.06Z" />
  <path fill="url(#gradient)"
    d="M204.56 49.19a24.42 24.42 0 0 1-4.56 5.19c-4.92 4.29-10.27 5.74-16.06 4.37-5.8-1.38-9.88-5.38-12.25-12-2.38-6.63-2.52-13.98-.44-22.06 2.13-8.09 5.94-13.52 11.44-16.32 5.54-2.83 10.62-3.43 15.25-1.8 4.66 1.62 9.23 5.78 13.69 12.5l-9.75 8.43c-1.75-6.58-3.98-10.48-6.7-11.69-2.7-1.25-5.53-.58-8.5 2-2.95 2.59-5 5.96-6.12 10.13a28 28 0 0 0-.31 12.75c.88 4.29 2.67 6.96 5.38 8 2.7 1.04 5.14.6 7.3-1.31a18.1 18.1 0 0 0 4.76-6.63l6.87 8.44Z" />
  <path fill="url(#gradient)"
    d="M291.5 17.44c-6.33.7-13.69 2.25-22.06 4.62-8.34 2.34-12.5 6.3-12.5 11.88 0 5 3.79 10 11.37 15 7.59 5 11.38 12.7 11.38 23.12 0 12.3-4.56 21.31-13.69 27.06-9.08 5.8-19.6 9.8-31.56 12l-8.19-16.43c5.08-1.25 12.52-3.8 22.31-7.63 9.8-3.87 14.69-8.7 14.69-14.5 0-5.12-3.96-10.06-11.88-14.81-7.87-4.75-11.8-12.08-11.8-22 0-10.88 3.56-18.77 10.68-23.69 7.13-4.91 17.98-8.94 32.56-12.06l8.69 17.44Z" />
  <path fill="url(#gradient)"
    d="m301.38 68 28.8-8.56-2.56 12.81-44 13.81c3.75-20.2 8.4-40.4 13.94-60.56-.29.04-.58.1-.87.19L293 14.5c6.38-1.75 13.7-2.88 22-3.38l24.56-1.8-3.37 12.37-24.88 2.43c-1.29 5.17-2.54 10.3-3.75 15.38l17.75-3-2.37 12.56-18.38 3.69A775.43 775.43 0 0 0 301.37 68Z" />
  <path fill="url(#gradient)"
    d="m357.81 8.56 21.13-1.06-2.88 10.81-21.44 1.63c-1.12 4.5-2.2 8.98-3.25 13.43l15.25-2.24-2.06 11L348.75 45c-1 4.5-1.94 8.94-2.81 13.31l24.87-6.87-2.25 11.19-37.87 11.24c3.29-17.7 7.33-35.37 12.12-53l-.75.13-3.12-9.94a93.38 93.38 0 0 1 18.87-2.5Z" />
  <path fill="url(#gradient)"
    d="m397.5 39.19 10.75 16.87-9 5.31-11.88-19.3c-1.62 7.66-3.06 14.78-4.3 21.37l-12.13 2.75c3.29-17.5 7.56-36.63 12.81-57.38l11.31-.25c-1.96 8.17-3.77 15.88-5.44 23.13l18.75-24.94 8.88 6.81L397.5 39.2Z" />
  <path fill="url(#gradient)"
    d="m451 6.81-2.56 9.38-18.38.06c-1 3.96-1.96 7.88-2.87 11.75l13.19-1.06-1.82 9.62-13.62 1.56c-.88 3.92-1.69 7.8-2.44 11.63l21.38-4.56-1.94 9.81-32.63 7.5a581.94 581.94 0 0 1 10.56-46.19c-.25 0-.47.02-.68.07l-2.69-9c3.83-.71 8.13-1.07 12.88-1.07 1.12 0 8.33.17 21.62.5Z" />
  <path fill="url(#gradient)"
    d="M460.38 31.75c4.29-.3 7.35-1.1 9.18-2.44 1.88-1.33 2.84-3.54 2.88-6.62v-.07c0-3-.86-4.91-2.56-5.75a13 13 0 0 0-4.44-1.43c-1.3-.17-2.3-.25-3-.25l3.31 1.81a137.3 137.3 0 0 0-5.38 14.75Zm12.8 7.31a27.76 27.76 0 0 1 1.76 3.13c.66 1.37 1.23 4.35 1.69 8.94L467.56 55c-.04-3.42-.31-6.2-.81-8.38-.46-2.2-1.2-4.04-2.25-5.5-1.96.3-4.23.55-6.81.76-1.21 4.66-2.3 9.62-3.25 14.87l-10.63 2.38a283.13 283.13 0 0 1 11.88-43.5l-2 .24-3-9.12a41.67 41.67 0 0 1 9.37-1.13c1.17 0 3.04.15 5.63.44 2.62.25 5.14.94 7.56 2.07a16.34 16.34 0 0 1 6.13 4.93c1.58 2.04 2.37 5.04 2.37 9-.13 3.84-.9 7.27-2.31 10.32-1.42 3-3.5 5.22-6.25 6.68Z" />
  <defs>
    <linearGradient id="gradient" x1="242.94" x2="242.94" y1="-19.19" y2="119.81"
      gradientUnits="userSpaceOnUse">
      <stop stop-color="#E0631E" />
      <stop offset="0.7" stop-color="#F8DB48" />
      <stop offset="1" stop-color="#FBF5D5" />
    </linearGradient>
  </defs>
</svg>
